# Blender v2.79 (sub 0) OBJ File: 'shapes.blend'
# www.blender.org
mtllib shapes.mtl
o Circle.001_Circle.002
v 0.000000 -0.002977 -0.930000
v -0.181434 -0.002977 -0.912130
v -0.355896 -0.002977 -0.859208
v -0.516680 -0.002977 -0.773267
v -0.657609 -0.002977 -0.657609
v -0.773267 -0.002977 -0.516680
v -0.859208 -0.002977 -0.355896
v -0.912130 -0.002977 -0.181434
v -0.930000 -0.002977 -0.000000
v -0.912131 -0.002977 0.181434
v -0.859208 -0.002977 0.355895
v -0.773267 -0.002977 0.516680
v -0.657609 -0.002977 0.657609
v -0.516680 -0.002977 0.773267
v -0.355896 -0.002977 0.859208
v -0.181434 -0.002977 0.912130
v 0.000000 -0.002977 0.930000
v 0.181434 -0.002977 0.912130
v 0.355896 -0.002977 0.859208
v 0.516681 -0.002977 0.773266
v 0.657610 -0.002977 0.657609
v 0.773267 -0.002977 0.516680
v 0.859208 -0.002977 0.355895
v 0.912131 -0.002977 0.181433
v 0.930000 -0.002977 -0.000001
v 0.912130 -0.002977 -0.181435
v 0.859208 -0.002977 -0.355897
v 0.773266 -0.002977 -0.516681
v 0.657609 -0.002977 -0.657610
v 0.516679 -0.002977 -0.773267
v 0.355894 -0.002977 -0.859209
v 0.181433 -0.002977 -0.912131
vn 0.0000 1.0000 -0.0000
usemtl Material.003
s off
f 2//1 3//1 4//1 5//1 6//1 7//1 8//1 9//1 10//1 11//1 12//1 13//1 14//1 15//1 16//1 17//1 18//1 19//1 20//1 21//1 22//1 23//1 24//1 25//1 26//1 27//1 28//1 29//1 30//1 31//1 32//1 1//1
o Circle
v 0.000000 0.000000 0.913311
v 0.178178 0.000000 0.895762
v 0.349509 0.000000 0.843789
v 0.507408 0.000000 0.759390
v 0.645808 0.000000 0.645808
v 0.759390 0.000000 0.507408
v 0.843789 0.000000 0.349509
v 0.895762 0.000000 0.178178
v 0.913311 0.000000 0.000000
v 0.895762 0.000000 -0.178178
v 0.843789 0.000000 -0.349509
v 0.759390 0.000000 -0.507408
v 0.645808 0.000000 -0.645808
v 0.507408 0.000000 -0.759390
v 0.349509 0.000000 -0.843789
v 0.178178 0.000000 -0.895762
v -0.000000 0.000000 -0.913311
v -0.178179 0.000000 -0.895762
v -0.349509 0.000000 -0.843789
v -0.507409 0.000000 -0.759390
v -0.645809 0.000000 -0.645808
v -0.759391 0.000000 -0.507408
v -0.843790 0.000000 -0.349508
v -0.895762 0.000000 -0.178177
v -0.913311 0.000000 0.000001
v -0.895762 0.000000 0.178179
v -0.843789 0.000000 0.349510
v -0.759390 0.000000 0.507409
v -0.645808 0.000000 0.645809
v -0.507407 0.000000 0.759391
v -0.349508 0.000000 0.843790
v -0.178177 0.000000 0.895762
vn 0.0000 -1.0000 0.0000
usemtl Material.002
s off
f 34//2 33//2 64//2 63//2 62//2 61//2 60//2 59//2 58//2 57//2 56//2 55//2 54//2 53//2 52//2 51//2 50//2 49//2 48//2 47//2 46//2 45//2 44//2 43//2 42//2 41//2 40//2 39//2 38//2 37//2 36//2 35//2
